<svg width="244" height="262" viewBox="0 0 244 262" fill="none" xmlns="http://www.w3.org/2000/svg">
<path d="M148.469 261.67C137.612 261.67 126.96 259.683 116.809 255.76C115.42 255.224 114.689 253.551 115.177 252.022C115.665 250.495 117.186 249.693 118.574 250.228C128.157 253.93 138.215 255.807 148.469 255.807C198.206 255.807 238.67 211.289 238.67 156.568C238.67 136.68 233.344 117.494 223.267 101.083C222.443 99.7425 222.764 97.9195 223.983 97.0131C225.203 96.1073 226.859 96.4594 227.683 97.801C238.358 115.185 244 135.505 244 156.568C244 214.522 201.145 261.67 148.469 261.67Z" fill="#3CBEA2"/>
<path d="M105.227 55.5378C104.846 55.5378 104.459 55.4475 104.092 55.2581C102.761 54.5671 102.191 52.82 102.818 51.3555C109.301 36.2199 127.174 29.5741 127.931 29.298C129.328 28.7877 130.836 29.624 131.299 31.1615C131.76 32.6989 131.002 34.3564 129.606 34.8646C129.404 34.9398 113.131 41.0333 107.639 53.8551C107.185 54.9162 106.226 55.5378 105.227 55.5378Z" fill="#3CBEA2"/>
<path d="M201.399 228.559C203.317 230.67 208.113 239.113 200.2 246.763C192.287 254.415 158.955 240.167 145.047 232.517C131.138 224.866 132.337 199.012 132.337 199.012C132.337 199.012 138.688 226.725 165.929 233.567C193.169 240.409 201.399 228.559 201.399 228.559Z" fill="#D2F0EB"/>
<path d="M103.082 253.656H101.971C101.59 253.656 101.212 253.565 100.866 253.392C84.8557 245.362 70.3521 230.254 60.0264 210.852C49.9084 191.845 44.3369 169.84 44.3369 148.893C44.3369 90.3347 87.6395 42.6937 140.865 42.6937C161.33 42.6937 180.882 49.651 197.408 62.8125C198.601 63.7616 198.868 65.594 198.005 66.906C197.142 68.218 195.477 68.5121 194.283 67.5616C178.672 55.1295 160.201 48.5574 140.865 48.5574C90.5783 48.5574 49.6666 93.568 49.6666 148.893C49.6666 189.618 70.8501 230.124 100.417 246.646V204.163C89.6454 187.5 67.1892 145.041 90.623 109.95C120.861 64.6688 178.247 89.6328 184.692 92.629C203.306 101.282 208.224 117.532 211.665 133.432C214.584 146.921 213.516 150.367 211.528 154.871C211.123 155.792 210.739 156.661 210.391 157.763C208.915 162.429 212.562 172.379 218.52 179.943C221.928 184.269 223.323 187.53 223.045 190.519C222.717 194.049 220.17 196.19 218.124 197.911C217.308 198.598 216.454 199.268 215.629 199.916C213.989 201.203 211.283 203.326 210.874 204.378C212.517 208.847 212.771 214.982 208.731 218.935C209.434 223.611 207.041 225.706 205.538 227.022C205.046 227.453 204.705 227.763 204.471 228.052C205.875 230.21 207.376 233.673 207.258 237.701C207.135 241.894 205.353 245.685 201.96 248.966C197.682 253.1 188.577 252.847 174.123 248.192C162.483 244.444 150.543 238.818 143.854 235.14C128.564 226.727 129.623 199.996 129.676 198.862C129.751 197.246 131.011 196.001 132.473 196.084C133.942 196.167 135.073 197.542 134.999 199.159C134.988 199.399 134.067 223.199 146.239 229.895C152.729 233.466 164.318 238.926 175.62 242.564C192.941 248.141 197.467 245.503 198.441 244.561C200.684 242.392 201.857 240.022 201.931 237.513C202.028 234.173 200.173 231.357 199.515 230.634C198.906 229.963 198.628 229.011 198.77 228.078C199.229 225.051 201.029 223.475 202.219 222.434C203.632 221.197 203.885 220.975 203.187 218.67C202.792 217.367 203.274 215.937 204.344 215.229C207.957 212.845 206.443 207.922 205.893 206.471C204.107 201.753 208.584 198.241 212.534 195.142C213.324 194.523 214.141 193.882 214.887 193.253C216.343 192.028 217.656 190.853 217.743 189.92C217.806 189.25 217.466 187.558 214.493 183.784C208.12 175.692 202.935 163.496 205.357 155.836C205.808 154.409 206.299 153.295 206.733 152.312C208.111 149.186 209.108 146.929 206.48 134.791C203.225 119.751 198.952 105.623 182.617 98.03C176.57 95.2196 122.735 71.7664 94.9179 113.422C73.5288 145.453 94.6899 185.196 104.781 200.798C104.997 201.131 105.164 201.391 105.278 201.572C105.583 202.061 105.747 202.64 105.747 203.233V250.724C105.747 252.343 104.554 253.656 103.082 253.656Z" fill="#3CBEA2"/>
<path d="M185.545 83.6934C168.587 71.8315 163.133 47.8694 163.133 47.8694C163.133 47.8694 185.168 43.1398 202.127 55.0045C219.086 66.8685 224.539 90.83 224.539 90.83C224.539 90.83 202.502 95.5588 185.545 83.6934Z" fill="#3CBEA2"/>
<path d="M166.604 50.2924C168.689 56.9577 174.678 72.618 186.974 81.2198C195.963 87.5093 206.577 88.8292 213.899 88.8292C216.807 88.8292 219.289 88.6203 221.067 88.407C218.983 81.7417 212.994 66.0814 200.697 57.4788C191.709 51.1909 181.096 49.8702 173.775 49.8702C170.865 49.8702 168.383 50.0791 166.604 50.2924ZM213.899 94.6921C205.869 94.6921 194.184 93.2132 184.115 86.167C166.462 73.8201 160.781 49.6064 160.547 48.5814C160.37 47.8015 160.491 46.9753 160.884 46.2965C161.276 45.6178 161.905 45.1457 162.623 44.9918C162.811 44.952 167.286 44.0065 173.775 44.0065C181.803 44.0065 193.487 45.4855 203.557 52.5303C221.209 64.88 226.891 89.0937 227.124 90.118C227.302 90.8987 227.18 91.7256 226.787 92.4036C226.395 93.0831 225.767 93.5544 225.049 93.7084C224.862 93.7488 220.386 94.6921 213.899 94.6921Z" fill="white"/>
<path d="M175.421 58.5717C185.056 59.6697 198.539 63.6005 214.093 83.6687C214.093 83.6687 189.841 61.9278 175.421 58.5717Z" fill="#D2F0EB"/>
<path d="M188.392 64.2936C188.392 64.2936 199.301 74.4705 200.266 82.304C199.366 71.8155 193.749 66.5359 193.749 66.5359L188.392 64.2936Z" fill="#D2F0EB"/>
<path d="M105.117 180.118C105.067 178.359 105.244 177.144 105.527 177.147C104.876 176.273 104.304 175.325 103.803 174.331C103.961 176.371 104.414 178.315 105.117 180.118Z" fill="#D2F0EB"/>
<path d="M101.673 166.14C100.477 164.858 99.4509 163.385 98.6343 161.766C98.974 166.103 100.646 170.021 103.201 173.02C102.324 170.905 101.781 168.587 101.673 166.14Z" fill="#D2F0EB"/>
<path d="M188.631 127.633C188.317 125.409 187.648 123.315 186.693 121.419C186.735 121.958 186.762 122.5 186.762 123.05C186.762 123.805 186.716 124.546 186.638 125.278C187.362 125.998 188.027 126.788 188.631 127.633Z" fill="#D2F0EB"/>
<path d="M192.218 137.639C192.26 138.175 192.287 138.716 192.287 139.264C192.287 149.675 184.616 158.113 175.155 158.113C174.846 158.113 174.539 158.104 174.235 158.085C171.789 165.208 165.536 170.274 158.207 170.274C155.098 170.274 152.186 169.359 149.673 167.766C146.894 174.048 141.036 178.382 134.258 178.382C133.242 178.382 132.249 178.278 131.282 178.092C128.607 181.232 124.968 183.359 120.884 183.91C120.884 184.107 120.843 184.586 120.821 184.812C120.836 185.144 120.252 193.171 112.532 193.171C110.145 193.171 108.467 191.624 107.317 189.491C107.808 194.208 109.727 200.664 114.605 200.664C122.325 200.664 122.909 192.636 122.893 192.304C122.916 192.079 122.956 191.6 122.956 191.402C127.04 190.853 130.68 188.724 133.355 185.584C134.322 185.771 135.316 185.874 136.331 185.874C143.108 185.874 148.966 181.541 151.745 175.258C154.258 176.851 157.171 177.766 160.279 177.766C167.609 177.766 173.861 172.7 176.308 165.578C176.612 165.596 176.919 165.606 177.227 165.606C186.689 165.606 194.36 157.168 194.36 146.757C194.36 143.447 193.58 140.342 192.218 137.639Z" fill="#D2F0EB"/>
<path d="M104.373 178.427C104.268 178.441 104.161 178.449 104.053 178.449C104.163 178.449 104.27 178.441 104.373 178.427ZM106.316 177.055C106.159 178.809 106.575 184.314 108.621 187.163C109.542 188.446 110.404 188.61 111.052 188.61C115.841 188.61 116.558 184.352 116.662 183.288C116.662 183.192 116.666 183.093 116.674 182.991C116.682 182.9 116.691 182.808 116.705 182.72C116.719 182.568 116.735 182.38 116.739 182.26C116.73 180.771 117.737 179.552 119.08 179.371C122.425 178.921 125.542 177.176 127.857 174.458C128.472 173.737 129.376 173.405 130.26 173.576C131.107 173.738 131.954 173.82 132.778 173.82C138.362 173.82 143.35 170.385 145.795 164.855C146.119 164.124 146.704 163.573 147.41 163.334C148.118 163.096 148.882 163.192 149.522 163.597C151.707 164.98 154.198 165.713 156.726 165.713C162.707 165.713 168.147 161.576 170.262 155.42C170.672 154.226 171.73 153.453 172.896 153.53C173.154 153.544 173.414 153.552 173.674 153.552C181.651 153.552 188.142 146.412 188.142 137.635C188.142 133.144 186.403 128.839 183.371 125.824C182.73 125.187 182.41 124.249 182.511 123.306C182.582 122.645 182.616 122.028 182.616 121.422C182.616 112.645 176.125 105.504 168.148 105.504C164.389 105.504 160.825 107.088 158.113 109.963C157.569 110.54 156.827 110.834 156.072 110.775C155.318 110.715 154.622 110.306 154.158 109.649C151.393 105.727 147.226 103.477 142.726 103.477C136.88 103.477 131.641 107.31 129.378 113.242C128.836 114.666 127.384 115.381 126.056 114.881C124.539 114.308 122.957 114.017 121.356 114.017C113.379 114.017 106.889 121.157 106.889 129.933C106.889 131.098 107.008 132.272 107.242 133.425C107.512 134.749 106.919 136.104 105.811 136.699C100.794 139.392 97.6774 144.877 97.6774 151.011C97.6774 155.338 99.2312 159.386 102.052 162.411C102.535 162.928 102.821 163.626 102.853 164.367C103.006 167.791 104.131 171.004 106.108 173.659C106.761 174.536 106.896 175.747 106.455 176.772C106.413 176.87 106.366 176.963 106.316 177.055ZM111.052 194.474C107.443 194.474 104.483 192.025 102.719 187.578C101.089 183.47 100.962 179.142 100.962 177.914C100.962 177.231 101.001 176.614 101.078 176.062C99.1326 173.012 97.9467 169.508 97.6077 165.792C94.2077 161.756 92.3477 156.551 92.3477 151.011C92.3477 143.367 95.8837 136.461 101.699 132.506C101.606 131.65 101.559 130.791 101.559 129.933C101.559 117.924 110.44 108.153 121.356 108.153C122.756 108.153 124.145 108.315 125.507 108.637C128.994 101.865 135.523 97.6137 142.726 97.6137C147.956 97.6137 152.856 99.8328 156.532 103.785C159.894 101.096 163.931 99.6413 168.148 99.6413C179.065 99.6413 187.946 109.411 187.946 121.422C187.946 121.783 187.937 122.146 187.92 122.512C191.463 126.557 193.472 131.988 193.472 137.635C193.472 149.342 185.033 158.923 174.496 159.399C171.197 166.759 164.277 171.576 156.726 171.576C154.163 171.576 151.626 171.026 149.266 169.97C145.624 176.027 139.519 179.684 132.778 179.684C132.106 179.684 131.424 179.645 130.742 179.566C128.228 182.121 125.152 183.919 121.836 184.778C121.537 186.468 120.767 188.981 118.967 191.044C117.011 193.289 114.274 194.474 111.052 194.474Z" fill="#3CBEA2"/>
<path d="M135.841 119.105C131.299 119.105 127.188 116.372 125.113 114.26C124.032 113.161 123.966 111.307 124.965 110.117C125.962 108.931 127.644 108.856 128.724 109.949C128.987 110.211 134.681 115.79 139.705 111.843C140.902 110.901 142.566 111.207 143.423 112.524C144.278 113.841 144 115.673 142.803 116.614C140.509 118.416 138.122 119.105 135.841 119.105Z" fill="#3CBEA2"/>
<path d="M163.6 119.75C160.374 119.75 157.85 118.782 156.063 116.851C152.675 113.193 153.543 107.864 153.652 107.268C153.946 105.681 155.355 104.657 156.794 104.978C158.23 105.299 159.16 106.834 158.88 108.413C158.866 108.499 158.464 111.252 159.813 112.686C161.081 114.032 163.889 114.259 167.718 113.32C169.159 112.97 170.58 113.966 170.898 115.547C171.218 117.127 170.312 118.693 168.875 119.045C166.95 119.516 165.19 119.75 163.6 119.75Z" fill="#3CBEA2"/>
<path d="M172.247 158.64C171.468 158.64 170.696 158.266 170.17 157.547C170.113 157.472 168.129 154.878 165.365 154.625C163.633 154.463 161.819 155.281 159.985 157.048C158.877 158.113 157.194 157.991 156.224 156.771C155.255 155.552 155.367 153.7 156.475 152.634C159.463 149.758 162.635 148.466 165.883 148.789C170.876 149.285 173.993 153.415 174.332 153.884C175.247 155.152 175.056 156.996 173.904 158.004C173.414 158.433 172.829 158.64 172.247 158.64Z" fill="#3CBEA2"/>
<path d="M112.828 148.433C111.357 148.433 110.164 147.12 110.164 145.501C110.164 137.678 104.125 137.17 103.437 137.137C101.966 137.068 100.825 135.701 100.887 134.083C100.95 132.466 102.195 131.22 103.663 131.279C107.755 131.471 115.493 134.69 115.493 145.501C115.493 147.12 114.3 148.433 112.828 148.433Z" fill="#3CBEA2"/>
<path d="M100.197 166.243C99.355 166.243 98.5271 165.805 98.0088 164.988C97.1684 163.663 97.4615 161.84 98.6625 160.912C99.5797 160.194 102.036 157.75 102.4 155.063C102.586 153.693 102.208 152.359 101.243 150.985C100.344 149.702 100.561 147.861 101.725 146.872C102.89 145.884 104.564 146.121 105.463 147.402C107.317 150.046 108.079 153.01 107.666 155.972C106.879 161.609 102.245 165.311 101.719 165.715C101.255 166.07 100.723 166.243 100.197 166.243Z" fill="#3CBEA2"/>
<path d="M128.227 170.368C127.488 170.368 126.753 170.032 126.226 169.375C125.253 168.16 125.359 166.307 126.463 165.236C139.914 152.193 150.057 164.036 150.157 164.158C151.151 165.35 151.077 167.206 149.992 168.3C148.912 169.388 147.235 169.314 146.239 168.132C145.544 167.325 139.279 160.625 129.988 169.635C129.481 170.127 128.853 170.368 128.227 170.368Z" fill="#3CBEA2"/>
<path d="M175.599 140.832C174.171 140.833 172.989 139.588 172.938 138.005C172.561 126.397 180.439 121.655 184.658 120.769C186.107 120.466 187.5 121.509 187.775 123.099C188.051 124.684 187.109 126.215 185.671 126.525C184.866 126.708 177.963 128.55 178.264 137.796C178.316 139.414 177.166 140.773 175.696 140.83C175.664 140.831 175.631 140.832 175.599 140.832Z" fill="#3CBEA2"/>
<path d="M119.406 185.213C119.23 185.213 119.051 185.195 118.871 185.154C117.432 184.832 116.501 183.289 116.79 181.703C116.876 181.225 118.686 170.529 111.092 167.354C109.716 166.779 109.024 165.085 109.547 163.572C110.07 162.058 111.609 161.297 112.985 161.874C122.466 165.836 123.037 177.338 122.014 182.866C121.758 184.256 120.647 185.213 119.406 185.213Z" fill="#3CBEA2"/>
<path d="M129.061 146.193C118.535 146.193 109.181 139.677 108.62 139.278C107.383 138.4 107.027 136.585 107.825 135.225C108.622 133.866 110.269 133.474 111.507 134.349C111.707 134.49 128.487 146.108 140.035 136.435C141.205 135.455 142.878 135.704 143.769 136.993C144.661 138.281 144.434 140.121 143.263 141.101C138.754 144.878 133.789 146.193 129.061 146.193Z" fill="#3CBEA2"/>
<path d="M121.708 144.958C120.377 144.958 119.226 143.863 119.065 142.373C118.769 139.635 119.442 137.1 121.011 135.04C124.97 129.845 133.437 129.169 134.39 129.109C135.865 129.021 137.119 130.253 137.203 131.869C137.286 133.484 136.165 134.868 134.698 134.963C132.872 135.084 127.189 136.051 125.092 138.811C124.468 139.633 124.234 140.545 124.358 141.679C124.532 143.287 123.488 144.746 122.026 144.938C121.919 144.951 121.813 144.958 121.708 144.958Z" fill="#3CBEA2"/>
<path d="M143.521 151.695C143.407 151.695 143.292 151.694 143.177 151.691C141.706 151.66 140.535 150.323 140.563 148.703C140.591 147.085 141.804 145.789 143.278 145.827C147.892 145.929 152.304 143.204 153.981 139.217C155.754 134.998 154.381 129.743 150.113 124.42C149.138 123.206 149.243 121.353 150.347 120.283C151.451 119.211 153.134 119.327 154.109 120.541C161.87 130.219 160.39 137.938 158.818 141.679C156.284 147.703 150.167 151.695 143.521 151.695Z" fill="#3CBEA2"/>
<path d="M158.213 140.223C157.826 140.223 157.432 140.206 157.033 140.171C155.565 140.044 154.47 138.632 154.586 137.018C154.702 135.403 155.986 134.197 157.453 134.326C160.507 134.59 162.158 133.255 163.002 132.088C164.137 130.515 164.311 128.646 163.979 127.49C163.537 125.946 164.315 124.299 165.718 123.811C167.124 123.322 168.619 124.18 169.061 125.724C170 128.991 169.276 132.828 167.173 135.736C165.062 138.656 161.912 140.223 158.213 140.223Z" fill="#3CBEA2"/>
<path d="M120.328 161.464C118.901 161.464 117.719 160.221 117.666 158.64C117.548 155.116 119.079 152.098 121.761 150.567C124.837 148.811 128.785 149.318 131.814 151.856C132.984 152.837 133.21 154.678 132.319 155.965C131.427 157.254 129.755 157.501 128.584 156.521C126.995 155.189 125.244 155.184 124.215 155.773C123.36 156.26 122.95 157.152 122.992 158.424C123.047 160.042 121.899 161.401 120.427 161.462C120.395 161.464 120.36 161.464 120.328 161.464Z" fill="#3CBEA2"/>
<path d="M120.107 129.824C118.27 129.824 116.38 129.238 114.693 128.074C113.446 127.214 113.07 125.404 113.852 124.033C114.634 122.661 116.278 122.245 117.525 123.107C119.218 124.274 120.961 124.103 121.938 123.416C122.749 122.845 123.085 121.916 122.938 120.653C122.75 119.048 123.781 117.578 125.241 117.371C126.698 117.165 128.036 118.299 128.224 119.906C128.633 123.404 127.357 126.562 124.811 128.355C123.418 129.336 121.785 129.824 120.107 129.824Z" fill="#3CBEA2"/>
<path d="M79.4706 73.5071C78.6184 73.5071 77.7814 73.0582 77.2656 72.2255C76.4378 70.8882 76.7499 69.066 77.9654 68.1537C79.0258 67.3579 104.245 48.7635 130.473 58.6838C131.865 59.2093 132.605 60.8776 132.127 62.4093C131.649 63.9403 130.132 64.7564 128.741 64.2287C105.076 55.2799 81.2058 72.8211 80.9673 72.9989C80.5087 73.3423 79.987 73.5071 79.4706 73.5071Z" fill="#3CBEA2"/>
<path d="M133.118 10.442C146.992 0.0967056 165.468 3.45067 165.468 3.45067C165.468 3.45067 161.451 23.5717 147.576 33.9163C133.7 44.2616 115.224 40.9076 115.224 40.9076C115.224 40.9076 119.241 20.7844 133.118 10.442Z" fill="#3CBEA2"/>
<path d="M118.649 38.3554C119.688 38.4335 120.958 38.4942 122.396 38.4942C128.914 38.4942 138.315 37.2791 146.081 31.4899C155.734 24.2933 160.335 11.8351 162.042 6.00397C161.004 5.9259 159.734 5.86374 158.297 5.86374C151.779 5.86374 142.378 7.07956 134.613 12.8695C124.959 20.0647 120.357 32.5228 118.649 38.3554ZM122.396 44.3579C117.915 44.3579 114.915 43.823 114.79 43.8006C114.068 43.669 113.428 43.218 113.017 42.5523C112.607 41.8858 112.463 41.0639 112.621 40.2789C112.794 39.4101 117.034 18.8886 131.623 8.01494C140.507 1.39082 151.032 8.55699e-05 158.297 8.55699e-05C162.776 8.55699e-05 165.776 0.534986 165.902 0.55884C166.623 0.688951 167.264 1.13999 167.674 1.80645C168.084 2.47218 168.228 3.29405 168.071 4.0805C167.898 4.94863 163.659 25.4679 149.071 36.3431C140.186 42.9686 129.66 44.3579 122.396 44.3579Z" fill="white"/>
<path d="M190.696 64.2814C177.092 62.7966 167.104 50.0841 167.104 50.0841C167.104 50.0841 179.168 39.78 192.773 41.2668C206.376 42.7523 216.364 55.4649 216.364 55.4649C216.364 55.4649 204.299 65.769 190.696 64.2814Z" fill="#3CBEA2"/>
<path d="M171.268 50.5338C174.737 54.0642 182.089 60.3955 190.959 61.3641C191.763 61.4516 192.591 61.4957 193.419 61.4957C201.337 61.4957 208.536 57.4709 212.197 55.0104C208.726 51.4793 201.376 45.1523 192.51 44.1844C191.706 44.0962 190.879 44.0521 190.052 44.0521C182.094 44.0521 174.916 48.0733 171.268 50.5338ZM193.419 67.3601C192.415 67.3601 191.411 67.3052 190.432 67.1989C175.938 65.6173 165.525 52.5563 165.089 52.0019C164.61 51.3933 164.38 50.5953 164.453 49.7951C164.524 48.9942 164.893 48.2619 165.47 47.7682C165.928 47.3772 176.838 38.1877 190.052 38.1877C191.054 38.1877 192.058 38.2419 193.036 38.3489C207.53 39.9319 217.945 52.9922 218.381 53.5473C218.859 54.156 219.089 54.954 219.016 55.7549C218.944 56.5544 218.576 57.2873 217.999 57.781C217.541 58.1721 206.63 67.3601 193.419 67.3601Z" fill="white"/>
<path d="M138.589 48.3162C137.444 48.3162 136.387 47.4994 136.038 46.2322C135.612 44.6825 136.409 43.0459 137.818 42.5775C144.675 40.2963 148.258 36.6568 151.722 33.138C156.439 28.3455 161.317 23.3897 173.079 23.123C174.552 23.0984 175.768 24.3757 175.798 25.9941C175.828 27.6133 174.66 28.9527 173.189 28.986C163.448 29.2064 159.869 32.843 155.338 37.4461C151.613 41.2294 147.391 45.5188 139.361 48.1897C139.104 48.275 138.843 48.3162 138.589 48.3162Z" fill="#3CBEA2"/>
<path d="M49.3646 130.846C49.2221 130.846 49.0788 130.845 48.9343 130.843C47.4626 130.821 46.2859 129.492 46.3049 127.873C46.324 126.267 47.5132 124.979 48.9691 124.979C48.9809 124.979 48.9928 124.979 49.0046 124.98C59.9971 125.135 65.3531 118.299 71.5862 110.379C77.0644 103.418 82.7298 96.2195 92.5733 94.0864C94.0174 93.7719 95.4181 94.8078 95.7026 96.3973C95.9871 97.9854 95.0476 99.5272 93.6035 99.8395C85.5583 101.583 80.7286 107.721 75.615 114.217C69.4765 122.017 62.5273 130.846 49.3646 130.846Z" fill="#3CBEA2"/>
<path d="M62.8828 95.3347C61.5832 95.3347 60.4453 94.288 60.2501 92.8308C60.0353 91.2297 61.0399 89.7414 62.4938 89.5028C62.7199 89.4638 75.4193 87.189 80.6925 76.3211C84.5761 68.3178 83.651 57.4882 77.9442 44.1337C77.3181 42.6685 77.8903 40.9214 79.2221 40.2333C80.5539 39.5437 82.1412 40.1733 82.768 41.6392C89.2403 56.7856 90.1161 69.3992 85.3705 79.1308C78.7819 92.6428 63.9051 95.201 63.275 95.3029C63.143 95.3246 63.0122 95.3347 62.8828 95.3347Z" fill="#3CBEA2"/>
<path d="M179.917 30.4728C168.155 38.1386 153.264 34.4 153.264 34.4C153.264 34.4 157.441 18.2388 169.205 10.5737C180.967 2.90874 195.858 6.64729 195.858 6.64729C195.858 6.64729 191.68 22.8107 179.917 30.4728Z" fill="#3CBEA2"/>
<path d="M156.86 32.0564C158.229 32.2291 159.992 32.3795 161.987 32.3795C166.446 32.3795 172.942 31.6118 178.558 27.9506C186.228 22.9543 190.464 13.8032 192.255 8.98978C190.887 8.81702 189.127 8.6674 187.135 8.6674C182.676 8.6674 176.18 9.43578 170.563 13.0962C162.859 18.1157 158.641 27.2509 156.86 32.0564ZM161.987 38.2432C156.656 38.2432 152.832 37.2984 152.672 37.2586C151.959 37.0794 151.345 36.5857 150.971 35.8939C150.6 35.2014 150.501 34.3724 150.701 33.5989C150.883 32.8927 155.313 16.2182 167.847 8.05083C174.502 3.71451 182.009 2.80371 187.135 2.80371C192.466 2.80371 196.29 3.74919 196.451 3.78822C197.164 3.96749 197.778 4.46118 198.151 5.15294C198.523 5.8447 198.621 6.67524 198.421 7.4494C198.239 8.1549 193.808 24.8309 181.275 32.9961C174.619 37.3331 167.113 38.2432 161.987 38.2432Z" fill="white"/>
<path d="M73.8448 47.3215C75.8158 30.5848 89.1125 18.6883 89.1125 18.6883C89.1125 18.6883 99.2102 33.9215 97.2378 50.6588C95.2648 67.3962 81.9681 79.2935 81.9681 79.2935C81.9681 79.2935 71.8704 64.0581 73.8448 47.3215Z" fill="#3CBEA2"/>
<path d="M88.5769 23.2314C84.9016 27.2793 77.8196 36.3886 76.4872 47.6981C75.1528 59.0077 79.8873 69.8033 82.5035 74.7497C86.1801 70.7011 93.2621 61.5911 94.5952 50.2823C95.9276 38.9727 91.1932 28.1785 88.5769 23.2314ZM81.968 82.2253C81.8537 82.2253 81.7394 82.2174 81.6251 82.2015C80.9004 82.0974 80.2453 81.6717 79.815 81.0211C79.3768 80.3604 69.1148 64.6372 71.2022 46.9442C73.2856 29.2512 86.8542 16.929 87.4311 16.4128C87.9988 15.9054 88.7307 15.6748 89.4554 15.7804C90.1801 15.8837 90.8344 16.3109 91.2654 16.9601C91.7037 17.6207 101.966 33.3418 99.8802 51.0362C97.7949 68.7299 84.2262 81.0522 83.6493 81.5683C83.1717 81.9962 82.5771 82.2253 81.968 82.2253Z" fill="white"/>
<path d="M51.8337 186.442C51.5867 186.442 51.3357 186.403 51.0867 186.323C49.6741 185.871 48.8627 184.245 49.2733 182.69C49.3082 182.556 52.7759 169.133 51.1406 153.921C49.0007 134.017 39.491 120.492 22.8756 113.72C21.4956 113.159 20.7911 111.471 21.3024 109.953C21.8136 108.435 23.3461 107.659 24.7268 108.222C43.1643 115.736 54.1352 131.364 56.4532 153.418C58.1733 169.781 54.5459 183.743 54.3908 184.328C54.0518 185.61 52.9874 186.442 51.8337 186.442Z" fill="#3CBEA2"/>
<path d="M45.9125 130.409C44.9811 130.409 44.0767 129.871 43.5875 128.914C32.4111 107.055 41.8683 82.1964 42.2763 81.1497C42.8564 79.6607 44.4247 78.9718 45.7755 79.6094C47.1273 80.2469 47.7547 81.9702 47.1759 83.4578C47.0511 83.7823 38.3871 106.782 48.2324 126.04C48.9544 127.451 48.4991 129.238 47.2166 130.033C46.8034 130.288 46.3546 130.409 45.9125 130.409Z" fill="#3CBEA2"/>
<path d="M101.972 253.656C100.929 253.656 99.939 252.978 99.5119 251.853C99.4225 251.62 94.0416 237.738 83.1673 225.437C68.8109 209.196 52.0826 203.214 33.4463 207.658C32.007 208.002 30.589 206.995 30.2772 205.413C29.9659 203.831 30.879 202.269 32.3176 201.926C52.6352 197.084 71.5815 203.846 87.1068 221.482C98.6749 234.625 104.201 248.988 104.43 249.594C104.997 251.087 104.356 252.804 102.997 253.429C102.662 253.584 102.314 253.656 101.972 253.656Z" fill="#3CBEA2"/>
<path d="M80.2551 221.188C79.694 221.188 79.1283 220.994 78.6467 220.591C65.8835 209.94 60.182 190.128 65.0886 173.482C65.5426 171.942 67.0451 171.099 68.4452 171.598C69.8453 172.097 70.6127 173.751 70.1581 175.292C65.9282 189.641 70.8532 206.727 81.8674 215.921C83.0402 216.9 83.2701 218.738 82.3805 220.028C81.8562 220.789 81.0599 221.188 80.2551 221.188Z" fill="#3CBEA2"/>
<path d="M66.2119 74.8016C60.0255 95.8363 40.3074 107.651 40.3074 107.651C40.3074 107.651 30.6221 85.3681 36.8111 64.3313C42.9991 43.2959 62.7166 31.4803 62.7166 31.4803C62.7166 31.4803 72.4017 53.7662 66.2119 74.8016Z" fill="#3CBEA2"/>
<path d="M61.4482 35.7892C56.104 39.6832 43.8318 49.9858 39.3459 65.2341C34.8597 80.4832 39.3164 96.7399 41.5749 103.343C46.9216 99.4476 59.192 89.1457 63.6762 73.8988C68.1629 58.6512 63.7064 42.3924 61.4482 35.7892ZM40.307 110.584C40.0311 110.584 39.7545 110.536 39.4865 110.441C38.7913 110.193 38.2187 109.642 37.9033 108.916C37.4888 107.963 27.8327 85.3262 34.2754 63.4285C40.7169 41.5315 60.598 29.4116 61.4416 28.9056C62.0835 28.5211 62.8411 28.4437 63.5369 28.6909C64.232 28.9389 64.8049 29.4904 65.1203 30.2161C65.5342 31.1688 75.1903 53.8089 68.747 75.7045C62.3069 97.6008 42.4252 109.721 41.5818 110.226C41.1868 110.463 40.7482 110.584 40.307 110.584Z" fill="white"/>
<path d="M17.3658 121.477C7.10837 115.941 2.66504 102.776 2.66504 102.776C2.66504 102.776 14.8475 98.5876 25.1044 104.125C35.3618 109.662 39.8057 122.827 39.8057 122.827C39.8057 122.827 27.6216 127.015 17.3658 121.477Z" fill="#3CBEA2"/>
<path d="M6.46372 104.823C8.33799 108.755 12.2775 115.464 18.5392 118.844C21.6952 120.55 25.4291 121.413 29.6382 121.413C32.1348 121.413 34.3555 121.107 36.0081 120.783C34.1346 116.851 30.1945 110.139 23.9308 106.757C20.7751 105.053 17.0414 104.19 12.8327 104.19C10.3509 104.19 8.124 104.498 6.46372 104.823ZM29.6382 127.276C24.6079 127.276 20.0837 126.212 16.1912 124.109C5.10784 118.127 0.3632 104.379 0.166884 103.796C-0.0879721 103.042 -0.0494718 102.206 0.2724 101.484C0.594469 100.762 1.17218 100.218 1.87 99.9768C2.06632 99.9096 6.74427 98.3259 12.8327 98.3259C17.8621 98.3259 22.3864 99.3913 26.2787 101.492C37.3622 107.477 42.1071 121.224 42.3034 121.807C42.558 122.561 42.52 123.397 42.1977 124.119C41.8758 124.841 41.2979 125.386 40.6003 125.625C40.404 125.693 35.7258 127.276 29.6382 127.276Z" fill="white"/>
<path d="M83.8112 165.928C80.0688 181.177 66.3773 190.37 66.3773 190.37C66.3773 190.37 58.7533 174.845 62.4963 159.594C66.24 144.344 79.9302 135.15 79.9302 135.15C79.9302 135.15 87.5555 150.677 83.8112 165.928Z" fill="#3CBEA2"/>
<path d="M78.8409 139.588C74.9382 142.893 67.5481 150.26 65.0692 160.359C62.5804 170.499 65.5974 180.931 67.4614 185.938C71.3654 182.632 78.7594 175.264 81.2377 165.163C83.7173 155.066 80.7029 144.608 78.8409 139.588ZM66.3773 193.303C66.1447 193.303 65.9115 193.269 65.6828 193.201C64.9765 192.99 64.38 192.473 64.0331 191.764C63.7013 191.088 55.9492 175.023 59.9241 158.831C63.8984 142.637 77.946 133.048 78.5413 132.648C79.1655 132.228 79.9191 132.109 80.6247 132.32C81.331 132.529 81.9269 133.049 82.2751 133.757C82.6062 134.432 90.3597 150.499 86.3834 166.692C82.4105 182.884 68.3622 192.473 67.7656 192.872C67.3438 193.156 66.8628 193.303 66.3773 193.303Z" fill="white"/>
<path d="M46.7799 224.077C32.4367 224.752 20.3394 213.163 20.3394 213.163C20.3394 213.163 31.495 200.482 45.8398 199.81C60.185 199.136 72.2813 210.725 72.2813 210.725C72.2813 210.725 61.1245 223.407 46.7799 224.077Z" fill="#3CBEA2"/>
<path d="M24.5082 212.962C28.5472 216.061 37.1518 221.598 46.666 221.148C56.1645 220.704 64.3181 214.386 68.1071 210.92C64.0651 207.822 55.4641 202.289 45.9525 202.739C36.4145 203.185 28.2829 209.497 24.5082 212.962ZM45.5688 227.038C30.9323 227.038 19.0862 215.85 18.5891 215.373C18.0376 214.845 17.7078 214.09 17.6767 213.287C17.6457 212.483 17.9157 211.701 18.4246 211.124C18.9101 210.571 30.4944 197.595 45.7259 196.88C60.9522 196.177 73.5189 208.023 74.0314 208.513C74.5826 209.042 74.9124 209.795 74.944 210.6C74.9749 211.403 74.7048 212.185 74.1963 212.764C73.7101 213.317 62.1249 226.294 46.8933 227.007C46.4505 227.027 46.0077 227.038 45.5688 227.038Z" fill="white"/>
<path d="M134.024 94.7694C117.065 82.9068 111.611 58.9454 111.611 58.9454C111.611 58.9454 133.647 54.2151 150.606 66.0798C167.564 77.9438 173.018 101.907 173.018 101.907C173.018 101.907 150.981 106.636 134.024 94.7694Z" fill="#3CBEA2"/>
<path d="M115.083 61.369C117.167 68.0329 123.156 83.6932 135.454 92.2958C144.442 98.5845 155.056 99.9044 162.378 99.9044C165.286 99.9044 167.768 99.6962 169.546 99.483C167.462 92.8177 161.474 77.1573 149.176 68.5541C140.188 62.2661 129.575 60.9469 122.254 60.9469C119.344 60.9469 116.862 61.1551 115.083 61.369ZM162.378 105.768C154.348 105.768 142.663 104.29 132.593 97.2429C114.941 84.8953 109.259 60.6816 109.026 59.6573C108.849 58.8767 108.97 58.0512 109.363 57.3717C109.755 56.693 110.383 56.2217 111.101 56.0677C111.288 56.0272 115.765 55.0825 122.254 55.0825C130.282 55.0825 141.966 56.5607 152.036 63.6062C169.688 75.9552 175.37 100.169 175.603 101.194C175.781 101.974 175.659 102.801 175.267 103.48C174.874 104.158 174.246 104.63 173.528 104.784C173.341 104.824 168.864 105.768 162.378 105.768Z" fill="white"/>
<path d="M116.14 62.1469C122.529 72.1908 133.656 84.9078 160.691 90.8972C160.691 90.8972 127.268 76.2214 116.14 62.1469Z" fill="#D2F0EB"/>
<path d="M128.62 73.2969C128.62 73.2969 144.017 79.6738 151.716 76.3639C141.629 81.2315 133.664 77.9693 133.664 77.9693L128.62 73.2969Z" fill="#D2F0EB"/>
<path d="M42.4907 96.3396C49.9821 87.4581 58.8354 72.9824 58.4681 42.9976C58.4681 42.9976 52.5359 81.5814 42.4907 96.3396Z" fill="#D2F0EB"/>
<path d="M49.6864 80.7529C49.6864 80.7529 52.0819 63.0585 47.5728 55.5627C53.9471 65.274 52.7402 74.4187 52.7402 74.4187L49.6864 80.7529Z" fill="#D2F0EB"/>
<path d="M97.7758 111.875C84.9114 123.176 66.5859 121.453 66.5859 121.453C66.5859 121.453 69.1141 101.412 81.9805 90.1093C94.8455 78.8091 113.17 80.5316 113.17 80.5316C113.17 80.5316 110.641 100.576 97.7758 111.875Z" fill="#3CBEA2"/>
<path d="M109.935 83.3732C104.638 83.439 92.6046 84.5298 83.6435 92.4008C74.7357 100.225 71.0978 112.737 69.8219 118.612C75.1181 118.547 87.152 117.455 96.113 109.583C105.02 101.761 108.658 89.2485 109.935 83.3732ZM69.2845 124.479C67.4928 124.479 66.4041 124.379 66.3588 124.375C65.6308 124.306 64.96 123.911 64.5033 123.283C64.0474 122.655 63.8457 121.847 63.9462 121.05C64.0559 120.185 66.7766 99.713 80.3184 87.8187C90.9141 78.5107 104.935 77.5059 110.472 77.5059C112.264 77.5059 113.352 77.6064 113.398 77.6107C114.126 77.6794 114.797 78.0741 115.253 78.7029C115.709 79.3311 115.91 80.1385 115.81 80.9351C115.701 81.801 112.979 102.274 99.4388 114.166C88.8431 123.475 74.8211 124.479 69.2845 124.479Z" fill="white"/>
<path d="M72.248 116.409C80.715 113.718 92.2108 107.81 103.199 87.0821C103.199 87.0821 84.6683 110.847 72.248 116.409Z" fill="#D2F0EB"/>
<path d="M83.0254 108.986C83.0254 108.986 91.3005 97.9399 91.018 90.7548C91.7492 100.306 87.4931 106.028 87.4931 106.028L83.0254 108.986Z" fill="#D2F0EB"/>
<path d="M42.5689 146.046C52.5431 160.455 50.5569 180.571 50.5569 180.571C50.5569 180.571 32.4034 177.329 22.4286 162.919C12.455 148.51 14.4415 128.394 14.4415 128.394C14.4415 128.394 32.5972 131.636 42.5689 146.046Z" fill="#3CBEA2"/>
<path d="M16.9494 132.018C16.8875 137.845 17.6022 151.106 24.5495 161.143C31.4542 171.12 42.7408 175.408 48.0492 176.946C48.1123 171.12 47.3968 157.858 40.449 147.822C33.5454 137.846 22.2586 133.557 16.9494 132.018ZM53.3691 177.673C53.3277 179.643 53.2114 180.838 53.2068 180.887C53.128 181.687 52.7535 182.417 52.172 182.903C51.5906 183.391 50.8521 183.594 50.13 183.466C49.3462 183.325 30.8067 179.862 20.3091 164.695C12.0941 152.827 11.5025 137.382 11.6301 131.292C11.6712 129.321 11.7879 128.127 11.7925 128.077C11.8716 127.277 12.2458 126.548 12.8276 126.061C13.4089 125.573 14.1473 125.371 14.8687 125.5C15.6533 125.639 34.1944 129.104 44.6898 144.27C52.9053 156.137 53.4959 171.583 53.3691 177.673Z" fill="white"/>
<path d="M46.1035 174.227C43.8525 164.853 38.7471 152.073 20.1646 139.512C20.1646 139.512 41.3341 160.439 46.1035 174.227Z" fill="#D2F0EB"/>
<path d="M39.6057 162.204C39.6057 162.204 29.7582 152.848 23.2227 152.994C31.9181 152.41 37.0205 157.221 37.0205 157.221L39.6057 162.204Z" fill="#D2F0EB"/>
<path d="M66.2606 211.124C58.8126 207.96 47.5764 205.295 29.3286 213.624C29.3286 213.624 54.5309 207.65 66.2606 211.124Z" fill="#D2F0EB"/>
<path d="M54.7895 209.982C54.7895 209.982 43.3187 212.962 39.9448 218.317C44.173 210.987 50.0932 209.423 50.0932 209.423L54.7895 209.982Z" fill="#D2F0EB"/>
<path d="M159.094 30.6746C166.141 29.1508 175.854 25.2518 186.111 9.28352C186.111 9.28352 169.535 27.1297 159.094 30.6746Z" fill="#D2F0EB"/>
<path d="M168.321 25.4895C168.321 25.4895 175.752 17.1689 175.986 11.3146C175.964 19.1234 172.14 23.4373 172.14 23.4373L168.321 25.4895Z" fill="#D2F0EB"/>
<path d="M84.3452 70.0432C81.6199 61.9676 79.3821 49.8094 87.035 30.2233C87.035 30.2233 81.3945 57.3429 84.3452 70.0432Z" fill="#D2F0EB"/>
<path d="M83.4714 57.6516C83.4714 57.6516 86.2716 45.312 91.0863 41.7368C84.4984 46.209 83.0312 52.5773 83.0312 52.5773L83.4714 57.6516Z" fill="#D2F0EB"/>
<path d="M123.312 36.0581C128.039 27.337 136.535 16.094 158.539 9.35493C158.539 9.35493 131.733 23.6932 123.312 36.0581Z" fill="#D2F0EB"/>
<path d="M133.009 26.0193C133.009 26.0193 145.38 19.7313 151.921 21.9548C143.32 18.6022 136.92 21.8254 136.92 21.8254L133.009 26.0193Z" fill="#D2F0EB"/>
<path d="M31.7016 119.17C28.4994 114.703 23.0367 109.133 10.3647 107.146C10.3647 107.146 26.2065 112.972 31.7016 119.17Z" fill="#D2F0EB"/>
<path d="M175.079 50.3673C181.93 47.8894 192.181 46.0483 208.302 54.4839C208.302 54.4839 185.808 47.8229 175.079 50.3673Z" fill="#D2F0EB"/>
<path d="M185.477 49.9158C185.477 49.9158 195.704 53.1823 198.527 58.1843C195.016 51.3556 189.738 49.6476 189.738 49.6476L185.477 49.9158Z" fill="#D2F0EB"/>
<path d="M68.5736 181.181C67.4974 173.334 67.5598 161.907 77.8125 145.829C77.8125 145.829 68.0854 169.117 68.5736 181.181Z" fill="#D2F0EB"/>
<path d="M69.9053 169.826C69.9053 169.826 74.5412 159.278 79.4957 157.052C72.7896 159.719 70.377 165.159 70.377 165.159L69.9053 169.826Z" fill="#D2F0EB"/>
</svg>
