<svg width="496" height="623" viewBox="0 0 496 623" fill="none" xmlns="http://www.w3.org/2000/svg">
<path d="M301.299 482.67C279.267 482.67 257.65 479.004 237.048 471.769C234.23 470.78 232.747 467.694 233.736 464.873C234.727 462.056 237.814 460.577 240.631 461.564C260.079 468.392 280.491 471.856 301.299 471.856C402.235 471.856 484.352 389.738 484.352 288.801C484.352 252.116 473.543 216.726 453.092 186.456C451.42 183.982 452.072 180.62 454.546 178.948C457.022 177.277 460.383 177.926 462.055 180.401C483.719 212.466 495.168 249.949 495.168 288.801C495.168 395.702 408.199 482.67 301.299 482.67Z" fill="#3CBEA2"/>
<path d="M213.545 102.444C212.773 102.444 211.987 102.277 211.242 101.928C208.541 100.653 207.383 97.4305 208.655 94.7292C221.813 66.8105 258.085 54.5518 259.621 54.0425C262.455 53.1012 265.515 54.6438 266.454 57.4798C267.39 60.3158 265.853 63.3732 263.019 64.3105C262.609 64.4492 229.585 75.6892 218.441 99.3398C217.518 101.297 215.573 102.444 213.545 102.444Z" fill="#3CBEA2"/>
<path d="M408.715 421.595C412.607 425.488 422.341 441.061 406.282 455.173C390.223 469.288 322.581 443.007 294.355 428.895C266.129 414.783 268.562 367.093 268.562 367.093C268.562 367.093 281.45 418.212 336.733 430.832C392.014 443.452 408.715 421.595 408.715 421.595Z" fill="#D2F0EB"/>
<path d="M209.193 467.886H206.938C206.165 467.886 205.398 467.72 204.695 467.4C172.205 452.588 142.771 424.72 121.817 388.933C101.283 353.872 89.9766 313.282 89.9766 274.644C89.9766 166.629 177.854 78.7518 285.869 78.7518C327.401 78.7518 367.079 91.5851 400.617 115.862C403.037 117.613 403.578 120.993 401.827 123.413C400.075 125.833 396.697 126.376 394.274 124.622C362.594 101.69 325.109 89.5678 285.869 89.5678C183.818 89.5678 100.793 172.593 100.793 274.644C100.793 349.764 143.782 424.481 203.785 454.957V376.594C181.925 345.858 136.353 267.54 183.909 202.812C245.274 119.287 361.731 165.335 374.81 170.861C412.585 186.822 422.565 216.796 429.549 246.125C435.473 271.006 433.305 277.362 429.271 285.67C428.449 287.369 427.67 288.973 426.963 291.006C423.969 299.613 431.369 317.965 443.461 331.918C450.375 339.897 453.207 345.913 452.643 351.426C451.977 357.938 446.809 361.886 442.657 365.061C441.001 366.329 439.267 367.564 437.593 368.76C434.265 371.134 428.774 375.05 427.943 376.99C431.278 385.233 431.794 396.55 423.595 403.842C425.021 412.468 420.165 416.332 417.114 418.76C416.115 419.553 415.425 420.126 414.949 420.66C417.798 424.64 420.845 431.028 420.605 438.457C420.357 446.192 416.739 453.184 409.853 459.236C401.173 466.861 382.695 466.394 353.362 457.809C329.739 450.894 305.509 440.517 291.935 433.733C260.905 418.214 263.055 368.908 263.162 366.816C263.314 363.834 265.871 361.538 268.838 361.692C271.819 361.845 274.114 364.381 273.965 367.364C273.942 367.806 272.073 411.706 296.774 424.058C309.945 430.645 333.465 440.717 356.401 447.428C391.551 457.714 400.735 452.848 402.711 451.11C407.263 447.11 409.645 442.738 409.795 438.11C409.993 431.949 406.227 426.754 404.891 425.421C403.655 424.184 403.093 422.428 403.381 420.706C404.311 415.124 407.963 412.217 410.379 410.296C413.246 408.014 413.761 407.605 412.345 403.353C411.542 400.949 412.519 398.312 414.693 397.006C422.023 392.608 418.951 383.528 417.835 380.85C414.211 372.149 423.297 365.67 431.311 359.954C432.915 358.812 434.573 357.629 436.087 356.47C439.042 354.209 441.707 352.042 441.883 350.321C442.011 349.085 441.322 345.965 435.287 339.004C422.354 324.077 411.831 301.58 416.747 287.452C417.662 284.819 418.659 282.764 419.539 280.95C422.337 275.185 424.359 271.021 419.027 248.632C412.421 220.89 403.749 194.829 370.599 180.824C358.327 175.64 249.075 132.379 192.625 209.216C149.218 268.298 192.162 341.608 212.641 370.386C213.078 371.001 213.418 371.481 213.649 371.814C214.269 372.717 214.601 373.785 214.601 374.878V462.478C214.601 465.465 212.179 467.886 209.193 467.886Z" fill="#3CBEA2"/>
<path d="M376.541 154.379C342.126 132.499 331.058 88.2985 331.058 88.2985C331.058 88.2985 375.775 79.5745 410.193 101.46C444.607 123.344 455.675 167.543 455.675 167.543C455.675 167.543 410.953 176.265 376.541 154.379Z" fill="#3CBEA2"/>
<path d="M338.104 92.7678C342.334 105.063 354.488 133.949 379.442 149.816C397.684 161.417 419.224 163.852 434.084 163.852C439.985 163.852 445.021 163.467 448.63 163.073C444.401 150.779 432.246 121.892 407.29 106.024C389.051 94.4252 367.513 91.9892 352.655 91.9892C346.75 91.9892 341.714 92.3745 338.104 92.7678ZM434.084 174.667C417.788 174.667 394.073 171.939 373.64 158.941C337.816 136.167 326.286 91.5025 325.812 89.6119C325.453 88.1732 325.698 86.6492 326.496 85.3972C327.292 84.1452 328.567 83.2745 330.025 82.9905C330.405 82.9172 339.487 81.1732 352.655 81.1732C368.947 81.1732 392.659 83.9012 413.094 96.8958C448.918 119.676 460.449 164.34 460.921 166.229C461.282 167.669 461.034 169.195 460.238 170.445C459.442 171.699 458.168 172.568 456.71 172.852C456.33 172.927 447.246 174.667 434.084 174.667Z" fill="white"/>
<path d="M355.995 108.04C375.548 110.065 402.91 117.316 434.476 154.333C434.476 154.333 385.259 114.231 355.995 108.04Z" fill="#D2F0EB"/>
<path d="M382.319 118.595C382.319 118.595 404.457 137.367 406.415 151.816C404.59 132.469 393.191 122.731 393.191 122.731L382.319 118.595Z" fill="#D2F0EB"/>
<path d="M213.322 332.241C213.222 328.996 213.581 326.755 214.154 326.76C212.833 325.148 211.673 323.4 210.655 321.567C210.977 325.329 211.895 328.916 213.322 332.241Z" fill="#D2F0EB"/>
<path d="M206.333 306.457C203.906 304.093 201.823 301.376 200.166 298.389C200.855 306.389 204.249 313.616 209.434 319.148C207.654 315.247 206.553 310.971 206.333 306.457Z" fill="#D2F0EB"/>
<path d="M382.803 235.429C382.166 231.327 380.809 227.464 378.87 223.967C378.957 224.96 379.01 225.961 379.01 226.976C379.01 228.368 378.918 229.735 378.759 231.084C380.229 232.412 381.578 233.871 382.803 235.429Z" fill="#D2F0EB"/>
<path d="M390.084 253.885C390.17 254.875 390.224 255.872 390.224 256.883C390.224 276.087 374.656 291.652 355.456 291.652C354.83 291.652 354.207 291.635 353.588 291.6C348.624 304.739 335.935 314.083 321.062 314.083C314.752 314.083 308.843 312.395 303.743 309.457C298.103 321.045 286.216 329.039 272.462 329.039C270.399 329.039 268.384 328.848 266.422 328.504C260.994 334.296 253.608 338.22 245.319 339.236C245.32 339.6 245.236 340.483 245.191 340.9C245.222 341.512 244.038 356.319 228.37 356.319C223.526 356.319 220.12 353.465 217.787 349.531C218.783 358.231 222.678 370.14 232.576 370.14C248.244 370.14 249.428 355.332 249.396 354.72C249.443 354.304 249.526 353.421 249.524 353.056C257.814 352.043 265.199 348.116 270.628 342.324C272.59 342.668 274.607 342.859 276.668 342.859C290.422 342.859 302.308 334.867 307.948 323.277C313.048 326.215 318.96 327.903 325.267 327.903C340.142 327.903 352.83 318.559 357.796 305.421C358.414 305.455 359.036 305.473 359.662 305.473C378.863 305.473 394.43 289.908 394.43 270.704C394.43 264.599 392.847 258.872 390.084 253.885Z" fill="#D2F0EB"/>
<path d="M211.813 329.121C211.599 329.148 211.382 329.162 211.163 329.162C211.387 329.162 211.603 329.148 211.813 329.121ZM215.755 326.59C215.438 329.826 216.282 339.981 220.433 345.236C222.302 347.602 224.051 347.905 225.366 347.905C235.085 347.905 236.541 340.05 236.753 338.088C236.753 337.91 236.761 337.728 236.777 337.54C236.791 337.372 236.811 337.202 236.838 337.04C236.867 336.761 236.899 336.413 236.907 336.192C236.89 333.446 238.933 331.197 241.658 330.864C248.446 330.033 254.773 326.814 259.471 321.801C260.719 320.47 262.554 319.858 264.347 320.173C266.066 320.473 267.785 320.624 269.457 320.624C280.789 320.624 290.911 314.288 295.874 304.088C296.531 302.738 297.718 301.722 299.151 301.282C300.587 300.842 302.138 301.02 303.437 301.766C307.871 304.318 312.927 305.67 318.057 305.67C330.195 305.67 341.234 298.04 345.527 286.684C346.359 284.481 348.506 283.056 350.873 283.197C351.395 283.222 351.922 283.238 352.451 283.238C368.639 283.238 381.811 270.068 381.811 253.877C381.811 245.594 378.283 237.653 372.129 232.092C370.829 230.917 370.179 229.186 370.383 227.448C370.529 226.228 370.597 225.09 370.597 223.972C370.597 207.782 357.425 194.61 341.237 194.61C333.607 194.61 326.375 197.532 320.871 202.834C319.767 203.898 318.262 204.442 316.73 204.333C315.199 204.222 313.787 203.468 312.846 202.256C307.234 195.021 298.777 190.872 289.645 190.872C277.782 190.872 267.15 197.941 262.558 208.882C261.458 211.509 258.511 212.829 255.817 211.906C252.737 210.849 249.527 210.313 246.278 210.313C230.089 210.313 216.918 223.482 216.918 239.672C216.918 241.82 217.159 243.986 217.635 246.112C218.182 248.554 216.979 251.054 214.73 252.152C204.549 257.12 198.225 267.237 198.225 278.552C198.225 286.533 201.378 293.998 207.103 299.58C208.082 300.533 208.663 301.821 208.729 303.186C209.038 309.504 211.322 315.43 215.333 320.326C216.658 321.944 216.933 324.178 216.038 326.069C215.953 326.249 215.858 326.421 215.755 326.59ZM225.366 358.722C218.043 358.722 212.037 354.205 208.455 346.001C205.147 338.424 204.89 330.441 204.89 328.176C204.89 326.916 204.97 325.777 205.126 324.76C201.178 319.134 198.771 312.67 198.083 305.816C191.183 298.372 187.409 288.769 187.409 278.552C187.409 264.45 194.585 251.712 206.386 244.417C206.197 242.838 206.102 241.253 206.102 239.672C206.102 217.52 224.125 199.496 246.278 199.496C249.118 199.496 251.938 199.796 254.701 200.389C261.778 187.898 275.029 180.056 289.645 180.056C300.259 180.056 310.203 184.149 317.663 191.44C324.486 186.48 332.678 183.796 341.237 183.796C363.39 183.796 381.414 201.817 381.414 223.972C381.414 224.638 381.395 225.308 381.361 225.982C388.551 233.444 392.629 243.462 392.629 253.877C392.629 275.473 375.502 293.145 354.118 294.022C347.423 307.6 333.381 316.485 318.057 316.485C312.855 316.485 307.706 315.47 302.918 313.522C295.527 324.694 283.137 331.441 269.457 331.441C268.093 331.441 266.71 331.369 265.325 331.222C260.223 335.936 253.981 339.252 247.251 340.837C246.645 343.954 245.082 348.59 241.43 352.394C237.461 356.536 231.906 358.722 225.366 358.722Z" fill="#3CBEA2"/>
<path d="M275.674 219.698C266.456 219.698 258.114 214.657 253.902 210.761C251.708 208.734 251.574 205.313 253.602 203.12C255.626 200.931 259.039 200.793 261.23 202.809C261.764 203.293 273.319 213.584 283.515 206.302C285.943 204.565 289.322 205.129 291.059 207.558C292.795 209.989 292.231 213.368 289.802 215.102C285.147 218.428 280.302 219.698 275.674 219.698Z" fill="#3CBEA2"/>
<path d="M332.007 220.888C325.461 220.888 320.338 219.103 316.711 215.541C309.837 208.793 311.597 198.963 311.819 197.864C312.415 194.936 315.274 193.048 318.195 193.64C321.11 194.232 322.997 197.063 322.427 199.976C322.401 200.135 321.583 205.213 324.322 207.857C326.894 210.34 332.594 210.759 340.365 209.028C343.289 208.381 346.171 210.219 346.818 213.135C347.466 216.049 345.629 218.939 342.713 219.588C338.805 220.456 335.234 220.888 332.007 220.888Z" fill="#3CBEA2"/>
<path d="M349.555 292.624C347.973 292.624 346.406 291.933 345.339 290.608C345.223 290.468 341.198 285.684 335.589 285.217C332.073 284.918 328.393 286.426 324.67 289.686C322.422 291.652 319.006 291.426 317.038 289.176C315.071 286.928 315.299 283.512 317.547 281.544C323.61 276.24 330.047 273.856 336.639 274.452C346.771 275.368 353.097 282.985 353.785 283.85C355.643 286.189 355.254 289.59 352.917 291.449C351.922 292.241 350.735 292.624 349.555 292.624Z" fill="#3CBEA2"/>
<path d="M228.971 273.796C225.985 273.796 223.563 271.375 223.563 268.388C223.563 253.957 211.309 253.02 209.913 252.96C206.927 252.832 204.611 250.311 204.738 247.327C204.865 244.343 207.393 242.045 210.371 242.153C218.675 242.508 234.379 248.445 234.379 268.388C234.379 271.375 231.958 273.796 228.971 273.796Z" fill="#3CBEA2"/>
<path d="M203.337 306.648C201.629 306.648 199.949 305.84 198.897 304.332C197.191 301.889 197.786 298.525 200.224 296.815C202.085 295.491 207.069 290.981 207.808 286.025C208.185 283.499 207.418 281.037 205.461 278.503C203.637 276.137 204.076 272.741 206.44 270.917C208.804 269.093 212.2 269.531 214.025 271.895C217.786 276.771 219.333 282.239 218.494 287.703C216.898 298.1 207.494 304.928 206.426 305.673C205.485 306.329 204.405 306.648 203.337 306.648Z" fill="#3CBEA2"/>
<path d="M260.221 314.257C258.722 314.257 257.23 313.637 256.161 312.424C254.186 310.184 254.402 306.766 256.642 304.79C283.939 280.732 304.523 302.577 304.726 302.801C306.743 305.001 306.593 308.424 304.39 310.441C302.198 312.449 298.795 312.312 296.774 310.132C295.363 308.642 282.65 296.285 263.794 312.905C262.766 313.812 261.491 314.257 260.221 314.257Z" fill="#3CBEA2"/>
<path d="M356.358 259.775C353.459 259.776 351.061 257.48 350.957 254.56C350.191 233.149 366.179 224.401 374.741 222.767C377.682 222.208 380.509 224.132 381.067 227.065C381.626 229.988 379.715 232.813 376.798 233.385C375.163 233.723 361.155 237.12 361.765 254.175C361.871 257.159 359.538 259.665 356.554 259.772C356.489 259.773 356.422 259.775 356.358 259.775Z" fill="#3CBEA2"/>
<path d="M242.321 341.64C241.962 341.64 241.599 341.605 241.235 341.531C238.314 340.936 236.425 338.091 237.011 335.165C237.186 334.283 240.858 314.553 225.447 308.697C222.655 307.637 221.251 304.512 222.313 301.72C223.374 298.928 226.497 297.525 229.29 298.588C248.53 305.897 249.689 327.113 247.613 337.309C247.093 339.873 244.838 341.64 242.321 341.64Z" fill="#3CBEA2"/>
<path d="M261.913 269.664C240.551 269.664 221.57 257.644 220.43 256.908C217.919 255.289 217.198 251.941 218.817 249.432C220.434 246.925 223.778 246.203 226.289 247.816C226.695 248.077 260.749 269.506 284.183 251.665C286.558 249.856 289.953 250.316 291.762 252.693C293.571 255.069 293.11 258.462 290.734 260.272C281.585 267.237 271.507 269.664 261.913 269.664Z" fill="#3CBEA2"/>
<path d="M246.991 267.386C244.29 267.386 241.955 265.366 241.629 262.617C241.027 257.568 242.393 252.89 245.578 249.09C253.611 239.508 270.795 238.261 272.729 238.152C275.721 237.988 278.266 240.261 278.437 243.242C278.606 246.221 276.331 248.774 273.354 248.949C269.647 249.173 258.114 250.956 253.859 256.048C252.593 257.564 252.118 259.245 252.369 261.337C252.722 264.304 250.603 266.994 247.638 267.348C247.421 267.373 247.205 267.386 246.991 267.386Z" fill="#3CBEA2"/>
<path d="M291.258 279.813C291.027 279.813 290.794 279.811 290.561 279.805C287.575 279.748 285.199 277.281 285.255 274.295C285.311 271.309 287.774 268.919 290.765 268.989C300.129 269.177 309.082 264.151 312.485 256.796C316.085 249.013 313.298 239.32 304.635 229.503C302.658 227.263 302.871 223.845 305.111 221.871C307.351 219.893 310.767 220.108 312.745 222.347C328.495 240.199 325.493 254.437 322.302 261.337C317.159 272.449 304.745 279.813 291.258 279.813Z" fill="#3CBEA2"/>
<path d="M321.075 258.652C320.289 258.652 319.489 258.62 318.679 258.556C315.701 258.321 313.478 255.717 313.714 252.74C313.95 249.761 316.555 247.536 319.531 247.775C325.73 248.261 329.079 245.799 330.793 243.645C333.097 240.745 333.45 237.297 332.777 235.164C331.878 232.316 333.458 229.279 336.305 228.379C339.158 227.477 342.191 229.06 343.09 231.908C344.994 237.933 343.526 245.011 339.257 250.375C334.974 255.761 328.582 258.652 321.075 258.652Z" fill="#3CBEA2"/>
<path d="M244.19 297.832C241.296 297.832 238.897 295.54 238.789 292.624C238.549 286.124 241.656 280.557 247.1 277.732C253.342 274.493 261.353 275.428 267.5 280.109C269.876 281.92 270.334 285.314 268.525 287.689C266.716 290.066 263.322 290.522 260.946 288.714C257.721 286.257 254.168 286.249 252.078 287.334C250.345 288.233 249.512 289.878 249.598 292.225C249.709 295.209 247.38 297.717 244.393 297.829C244.326 297.832 244.257 297.832 244.19 297.832Z" fill="#3CBEA2"/>
<path d="M243.743 239.469C240.015 239.469 236.179 238.389 232.757 236.243C230.226 234.656 229.462 231.317 231.05 228.788C232.635 226.257 235.973 225.491 238.503 227.08C241.938 229.233 245.477 228.917 247.459 227.649C249.105 226.596 249.786 224.883 249.487 222.553C249.106 219.592 251.199 216.881 254.162 216.5C257.118 216.12 259.834 218.212 260.215 221.175C261.046 227.628 258.455 233.453 253.29 236.76C250.462 238.569 247.147 239.469 243.743 239.469Z" fill="#3CBEA2"/>
<path d="M161.276 135.589C159.547 135.589 157.848 134.761 156.802 133.225C155.122 130.758 155.755 127.397 158.222 125.714C160.374 124.246 211.552 89.9478 264.779 108.246C267.604 109.216 269.107 112.293 268.136 115.118C267.166 117.942 264.087 119.448 261.264 118.474C213.239 101.968 164.798 134.324 164.314 134.652C163.383 135.285 162.324 135.589 161.276 135.589Z" fill="#3CBEA2"/>
<path d="M270.147 19.2611C298.303 0.178423 335.798 6.36506 335.798 6.36506C335.798 6.36506 327.646 43.4798 299.487 62.5611C271.327 81.6438 233.833 75.457 233.833 75.457C233.833 75.457 241.986 38.3384 270.147 19.2611Z" fill="#3CBEA2"/>
<path d="M240.784 70.7493C242.892 70.8933 245.47 71.0053 248.388 71.0053C261.615 71.0053 280.694 68.764 296.454 58.0853C316.043 44.8106 325.38 21.8306 328.846 11.0746C326.738 10.9306 324.16 10.8159 321.244 10.8159C308.016 10.8159 288.939 13.0586 273.182 23.7386C253.59 37.0106 244.251 59.9906 240.784 70.7493ZM248.388 81.8213C239.295 81.8213 233.207 80.8346 232.952 80.7933C231.488 80.5506 230.188 79.7186 229.355 78.4906C228.523 77.2613 228.231 75.7453 228.551 74.2973C228.902 72.6947 237.506 34.8413 267.112 14.784C285.142 2.56531 306.5 -4.26731e-06 321.244 -4.26731e-06C330.335 -4.26731e-06 336.423 0.98666 336.678 1.03066C338.142 1.27066 339.443 2.10263 340.275 3.33196C341.107 4.55996 341.398 6.07596 341.08 7.52662C340.728 9.12796 332.126 46.9773 302.522 67.0373C284.49 79.2586 263.13 81.8213 248.388 81.8213Z" fill="white"/>
<path d="M386.994 118.572C359.388 115.833 339.118 92.3839 339.118 92.3839C339.118 92.3839 363.6 73.3772 391.209 76.1199C418.816 78.8599 439.085 102.309 439.085 102.309C439.085 102.309 414.601 121.316 386.994 118.572Z" fill="#3CBEA2"/>
<path d="M347.567 93.2132C354.607 99.7252 369.527 111.404 387.528 113.19C389.159 113.352 390.839 113.433 392.52 113.433C408.59 113.433 423.198 106.009 430.628 101.47C423.584 94.9571 408.669 83.2865 390.675 81.5011C389.045 81.3385 387.366 81.2571 385.687 81.2571C369.538 81.2571 354.97 88.6745 347.567 93.2132ZM392.52 124.25C390.483 124.25 388.444 124.149 386.459 123.953C357.044 121.036 335.912 96.9438 335.027 95.9211C334.055 94.7985 333.59 93.3265 333.737 91.8505C333.882 90.3732 334.63 89.0225 335.802 88.1118C336.731 87.3905 358.871 70.4398 385.687 70.4398C387.722 70.4398 389.759 70.5398 391.743 70.7371C421.158 73.6571 442.293 97.7478 443.178 98.7718C444.147 99.8945 444.614 101.366 444.467 102.844C444.32 104.318 443.574 105.67 442.403 106.581C441.473 107.302 419.33 124.25 392.52 124.25Z" fill="white"/>
<path d="M281.248 89.1226C278.926 89.1226 276.78 87.6159 276.072 85.2786C275.208 82.4199 276.826 79.4012 279.684 78.5372C293.6 74.3292 300.871 67.6159 307.902 61.1253C317.474 52.2853 327.372 43.1439 351.243 42.6519C354.232 42.6066 356.699 44.9626 356.76 47.9479C356.822 50.9346 354.451 53.4053 351.466 53.4666C331.698 53.8733 324.434 60.5812 315.239 69.0719C307.68 76.0505 299.112 83.9626 282.815 88.8892C282.294 89.0466 281.766 89.1226 281.248 89.1226Z" fill="#3CBEA2"/>
<path d="M100.18 241.354C99.8902 241.354 99.5995 241.353 99.3062 241.349C96.3195 241.309 93.9315 238.857 93.9702 235.871C94.0089 232.908 96.4222 230.533 99.3768 230.533C99.4008 230.533 99.4249 230.533 99.4489 230.535C121.757 230.82 132.626 218.211 145.276 203.603C156.393 190.761 167.89 177.484 187.866 173.549C190.797 172.969 193.64 174.88 194.217 177.812C194.794 180.741 192.888 183.585 189.957 184.161C173.63 187.377 163.829 198.699 153.452 210.683C140.994 225.069 126.892 241.354 100.18 241.354Z" fill="#3CBEA2"/>
<path d="M127.613 175.852C124.975 175.852 122.666 173.921 122.27 171.233C121.834 168.28 123.873 165.534 126.823 165.094C127.282 165.022 153.054 160.826 163.755 140.78C171.637 126.017 169.759 106.041 158.178 81.4078C156.907 78.7051 158.069 75.4824 160.771 74.2131C163.474 72.9411 166.695 74.1025 167.967 76.8065C181.102 104.745 182.879 128.012 173.249 145.962C159.878 170.886 129.687 175.605 128.409 175.793C128.141 175.833 127.875 175.852 127.613 175.852Z" fill="#3CBEA2"/>
<path d="M365.119 56.2092C341.251 70.3492 311.031 63.4532 311.031 63.4532C311.031 63.4532 319.507 33.6425 343.381 19.5039C367.251 5.3652 397.47 12.2612 397.47 12.2612C397.47 12.2612 388.991 42.0759 365.119 56.2092Z" fill="#3CBEA2"/>
<path d="M318.329 59.1305C321.107 59.4492 324.683 59.7265 328.733 59.7265C337.782 59.7265 350.965 58.3105 362.362 51.5571C377.927 42.3411 386.523 25.4611 390.158 16.5825C387.382 16.2638 383.81 15.9878 379.767 15.9878C370.718 15.9878 357.535 17.4051 346.137 24.1571C330.503 33.4158 321.942 50.2665 318.329 59.1305ZM328.733 70.5425C317.914 70.5425 310.154 68.7998 309.829 68.7265C308.382 68.3958 307.135 67.4851 306.378 66.2091C305.623 64.9318 305.423 63.4025 305.83 61.9758C306.199 60.6731 315.189 29.9158 340.625 14.8505C354.131 6.85183 369.365 5.17178 379.767 5.17178C390.587 5.17178 398.347 6.9158 398.673 6.9878C400.119 7.31846 401.366 8.22911 402.123 9.50511C402.878 10.7811 403.077 12.3131 402.671 13.7411C402.302 15.0424 393.31 45.8025 367.875 60.8638C354.369 68.8638 339.135 70.5425 328.733 70.5425Z" fill="white"/>
<path d="M149.859 87.2878C153.859 56.4158 180.843 34.4718 180.843 34.4718C180.843 34.4718 201.335 62.5705 197.333 93.4438C193.329 124.317 166.345 146.262 166.345 146.262C166.345 146.262 145.853 118.16 149.859 87.2878Z" fill="#3CBEA2"/>
<path d="M179.757 42.852C172.298 50.3186 157.926 67.1213 155.222 87.9827C152.514 108.844 162.122 128.757 167.431 137.881C174.893 130.413 189.265 113.609 191.97 92.7493C194.674 71.888 185.066 51.9773 179.757 42.852ZM166.345 151.671C166.113 151.671 165.881 151.656 165.649 151.627C164.178 151.435 162.849 150.649 161.975 149.449C161.086 148.231 140.261 119.228 144.497 86.592C148.725 53.956 176.261 31.2266 177.431 30.2746C178.583 29.3386 180.069 28.9133 181.539 29.108C183.01 29.2986 184.338 30.0867 185.213 31.284C186.102 32.5027 206.927 61.5013 202.695 94.14C198.463 126.777 170.927 149.507 169.757 150.459C168.787 151.248 167.581 151.671 166.345 151.671Z" fill="white"/>
<path d="M105.19 343.905C104.689 343.905 104.179 343.835 103.674 343.687C100.807 342.853 99.1606 339.853 99.9939 336.985C100.065 336.739 107.102 311.979 103.783 283.919C99.4406 247.204 80.1418 222.256 46.423 209.765C43.6225 208.729 42.1927 205.617 43.2303 202.816C44.2678 200.016 47.3777 198.585 50.1798 199.624C87.5965 213.483 109.861 242.311 114.565 282.991C118.055 313.173 110.694 338.927 110.379 340.007C109.691 342.372 107.531 343.905 105.19 343.905Z" fill="#3CBEA2"/>
<path d="M93.174 240.549C91.284 240.549 89.4485 239.557 88.4559 237.792C65.7747 197.471 84.9668 151.617 85.7949 149.687C86.972 146.94 90.1548 145.669 92.896 146.845C95.6393 148.021 96.9127 151.2 95.738 153.944C95.4847 154.543 77.9023 196.968 97.882 232.489C99.3473 235.093 98.4233 238.389 95.8207 239.855C94.982 240.325 94.0713 240.549 93.174 240.549Z" fill="#3CBEA2"/>
<path d="M206.941 467.886C204.823 467.886 202.814 466.637 201.947 464.561C201.766 464.132 190.846 438.525 168.778 415.834C139.643 385.878 105.695 374.842 67.8752 383.04C64.9543 383.676 62.0767 381.818 61.4439 378.9C60.8121 375.981 62.6652 373.1 65.5845 372.468C106.817 363.536 145.266 376.009 176.773 408.54C200.249 432.782 211.463 459.277 211.929 460.394C213.079 463.149 211.778 466.316 209.021 467.468C208.341 467.754 207.634 467.886 206.941 467.886Z" fill="#3CBEA2"/>
<path d="M162.868 407.999C161.73 407.999 160.582 407.64 159.604 406.897C133.703 387.249 122.132 350.705 132.09 320.001C133.011 317.16 136.06 315.605 138.902 316.525C141.743 317.447 143.3 320.496 142.378 323.34C133.794 349.807 143.788 381.324 166.14 398.283C168.52 400.088 168.987 403.479 167.182 405.859C166.118 407.261 164.502 407.999 162.868 407.999Z" fill="#3CBEA2"/>
<path d="M134.369 137.977C121.814 176.777 81.7987 198.571 81.7987 198.571C81.7987 198.571 62.1435 157.468 74.7035 118.664C87.2612 79.8626 127.276 58.0679 127.276 58.0679C127.276 58.0679 146.93 99.1759 134.369 137.977Z" fill="#3CBEA2"/>
<path d="M124.702 66.016C113.857 73.1986 88.9518 92.2026 79.848 120.329C70.7439 148.457 79.7882 178.444 84.3715 190.624C95.222 183.439 120.123 164.436 129.223 136.312C138.329 108.187 129.285 78.196 124.702 66.016ZM81.7986 203.98C81.2387 203.98 80.6772 203.892 80.1335 203.716C78.7226 203.26 77.5606 202.243 76.9204 200.904C76.0794 199.147 56.4835 157.391 69.558 116.999C82.6304 76.608 122.977 54.252 124.689 53.3186C125.991 52.6093 127.529 52.4667 128.941 52.9227C130.351 53.38 131.514 54.3973 132.154 55.736C132.994 57.4933 152.59 99.2546 139.514 139.643C126.445 180.032 86.0971 202.388 84.3856 203.32C83.584 203.757 82.6939 203.98 81.7986 203.98Z" fill="white"/>
<path d="M35.242 224.073C14.4259 213.861 5.40869 189.577 5.40869 189.577C5.40869 189.577 30.1315 181.852 50.9467 192.065C71.7628 202.28 80.7811 226.564 80.7811 226.564C80.7811 226.564 56.055 234.289 35.242 224.073Z" fill="#3CBEA2"/>
<path d="M13.1173 193.354C16.9209 200.606 24.9157 212.983 37.6231 219.217C44.0277 222.363 51.6053 223.956 60.1471 223.956C65.2137 223.956 69.7204 223.39 73.0741 222.793C69.272 215.54 61.2761 203.158 48.5647 196.921C42.1605 193.777 34.5835 192.185 26.0424 192.185C21.0059 192.185 16.4867 192.754 13.1173 193.354ZM60.1471 234.771C49.9387 234.771 40.7575 232.806 32.858 228.928C10.3657 217.893 0.737071 192.534 0.338671 191.46C-0.178529 190.069 -0.100397 188.526 0.552803 187.194C1.2064 185.862 2.3788 184.859 3.79494 184.415C4.19334 184.291 13.6867 181.369 26.0424 181.369C36.2491 181.369 45.4304 183.335 53.3293 187.209C75.822 198.249 85.4512 223.607 85.8496 224.681C86.3663 226.072 86.2892 227.615 85.6351 228.947C84.9819 230.279 83.8091 231.284 82.3933 231.725C81.9949 231.85 72.5012 234.771 60.1471 234.771Z" fill="white"/>
<path d="M170.085 306.067C162.49 334.195 134.705 351.152 134.705 351.152C134.705 351.152 119.233 322.515 126.829 294.384C134.426 266.253 162.209 249.294 162.209 249.294C162.209 249.294 177.683 277.934 170.085 306.067Z" fill="#3CBEA2"/>
<path d="M159.998 257.481C152.078 263.577 137.08 277.167 132.05 295.793C126.999 314.499 133.122 333.741 136.904 342.976C144.827 336.879 159.832 323.288 164.862 304.655C169.894 286.031 163.776 266.74 159.998 257.481ZM134.704 356.561C134.232 356.561 133.759 356.499 133.295 356.373C131.862 355.985 130.651 355.031 129.947 353.723C129.274 352.476 113.542 322.843 121.608 292.976C129.674 263.104 158.182 245.417 159.39 244.679C160.656 243.905 162.186 243.685 163.618 244.073C165.051 244.46 166.26 245.419 166.967 246.724C167.639 247.971 183.374 277.607 175.304 307.476C167.242 337.343 138.732 355.031 137.522 355.767C136.666 356.291 135.69 356.561 134.704 356.561Z" fill="white"/>
<path d="M94.9337 413.327C65.8259 414.572 41.2759 393.195 41.2759 393.195C41.2759 393.195 63.9149 369.804 93.0259 368.564C122.138 367.321 146.686 388.697 146.686 388.697C146.686 388.697 124.044 412.091 94.9337 413.327Z" fill="#3CBEA2"/>
<path d="M49.7367 392.824C57.9335 398.54 75.3955 408.755 94.7033 407.924C113.979 407.105 130.526 395.452 138.215 389.059C130.013 383.343 112.558 373.137 93.2553 373.968C73.8991 374.791 57.3971 386.433 49.7367 392.824ZM92.4767 418.788C62.7736 418.788 38.7335 398.152 37.7247 397.272C36.6053 396.299 35.9361 394.905 35.8731 393.424C35.81 391.941 36.358 390.499 37.3908 389.433C38.3761 388.413 61.8851 364.479 92.7955 363.16C123.695 361.864 149.198 383.715 150.238 384.619C151.357 385.593 152.026 386.983 152.09 388.468C152.153 389.949 151.605 391.392 150.573 392.46C149.586 393.479 126.075 417.416 95.1647 418.731C94.266 418.769 93.3673 418.788 92.4767 418.788Z" fill="white"/>
<path d="M271.986 174.809C237.57 152.928 226.502 108.729 226.502 108.729C226.502 108.729 271.221 100.004 305.637 121.889C340.051 143.773 351.119 187.975 351.119 187.975C351.119 187.975 306.398 196.697 271.986 174.809Z" fill="#3CBEA2"/>
<path d="M233.547 113.2C237.777 125.492 249.931 154.379 274.887 170.247C293.127 181.847 314.667 184.281 329.527 184.281C335.429 184.281 340.465 183.897 344.074 183.504C339.845 171.209 327.691 142.323 302.734 126.453C284.495 114.855 262.957 112.421 248.099 112.421C242.194 112.421 237.158 112.805 233.547 113.2ZM329.527 195.097C313.231 195.097 289.518 192.371 269.082 179.372C233.259 156.596 221.729 111.932 221.255 110.043C220.895 108.603 221.142 107.08 221.939 105.827C222.735 104.575 224.01 103.705 225.466 103.421C225.846 103.346 234.931 101.604 248.099 101.604C264.391 101.604 288.103 104.331 308.539 117.327C344.362 140.105 355.893 184.769 356.365 186.66C356.726 188.098 356.479 189.624 355.683 190.876C354.886 192.128 353.611 192.997 352.154 193.283C351.774 193.356 342.69 195.097 329.527 195.097Z" fill="white"/>
<path d="M235.692 114.635C248.658 133.161 271.239 156.619 326.103 167.667C326.103 167.667 258.275 140.596 235.692 114.635Z" fill="#D2F0EB"/>
<path d="M261.018 135.201C261.018 135.201 292.266 146.964 307.889 140.859C287.418 149.837 271.254 143.82 271.254 143.82L261.018 135.201Z" fill="#D2F0EB"/>
<path d="M86.23 177.705C101.433 161.323 119.399 134.621 118.654 79.312C118.654 79.312 106.615 150.483 86.23 177.705Z" fill="#D2F0EB"/>
<path d="M100.833 148.955C100.833 148.955 105.694 116.316 96.5435 102.489C109.479 120.403 107.03 137.271 107.03 137.271L100.833 148.955Z" fill="#D2F0EB"/>
<path d="M198.424 206.361C172.318 227.207 135.128 224.029 135.128 224.029C135.128 224.029 140.259 187.061 166.37 166.213C192.478 145.369 229.666 148.547 229.666 148.547C229.666 148.547 224.532 185.52 198.424 206.361Z" fill="#3CBEA2"/>
<path d="M223.099 153.788C212.351 153.909 187.93 155.921 169.744 170.44C151.667 184.872 144.284 207.952 141.695 218.788C152.443 218.668 176.864 216.655 195.05 202.135C213.124 187.705 220.508 164.625 223.099 153.788ZM140.604 229.611C136.968 229.611 134.759 229.427 134.667 229.419C133.19 229.292 131.828 228.563 130.902 227.404C129.976 226.245 129.567 224.756 129.771 223.285C129.994 221.689 135.515 183.928 162.996 161.988C184.499 144.819 212.954 142.965 224.19 142.965C227.826 142.965 230.034 143.151 230.127 143.159C231.604 143.285 232.966 144.013 233.892 145.173C234.818 146.332 235.226 147.821 235.023 149.291C234.802 150.888 229.276 188.652 201.799 210.588C180.296 227.759 151.84 229.611 140.604 229.611Z" fill="white"/>
<path d="M146.619 214.725C163.802 209.761 187.131 198.863 209.43 160.629C209.43 160.629 171.824 204.465 146.619 214.725Z" fill="#D2F0EB"/>
<path d="M168.49 201.033C168.49 201.033 185.284 180.657 184.71 167.404C186.194 185.021 177.557 195.577 177.557 195.577L168.49 201.033Z" fill="#D2F0EB"/>
<path d="M86.3888 269.392C106.63 295.97 102.599 333.077 102.599 333.077C102.599 333.077 65.7592 327.097 45.5164 300.516C25.2763 273.937 29.3076 236.832 29.3076 236.832C29.3076 236.832 66.1524 242.812 86.3888 269.392Z" fill="#3CBEA2"/>
<path d="M34.3967 243.517C34.2711 254.265 35.7216 278.727 49.8202 297.24C63.8326 315.644 86.7372 323.553 97.5102 326.391C97.6382 315.644 96.1862 291.181 82.0863 272.669C68.0763 254.267 45.1711 246.356 34.3967 243.517ZM108.306 327.731C108.222 331.365 107.986 333.569 107.977 333.66C107.817 335.136 107.057 336.481 105.877 337.379C104.697 338.279 103.198 338.652 101.733 338.416C100.142 338.156 62.5186 331.769 41.2148 303.792C24.5435 281.901 23.343 253.411 23.6019 242.177C23.6852 238.543 23.9222 236.34 23.9315 236.247C24.092 234.772 24.8514 233.428 26.032 232.529C27.2118 231.629 28.7102 231.256 30.1743 231.493C31.7664 231.751 69.3935 238.141 90.6926 266.116C107.365 288.005 108.564 316.497 108.306 327.731Z" fill="white"/>
<path d="M93.5619 321.375C88.9937 304.084 78.6328 280.511 40.9219 257.34C40.9219 257.34 83.8828 295.941 93.5619 321.375Z" fill="#D2F0EB"/>
<path d="M80.3754 299.197C80.3754 299.197 60.391 281.939 47.1279 282.208C64.7743 281.131 75.129 290.005 75.129 290.005L80.3754 299.197Z" fill="#D2F0EB"/>
<path d="M134.467 389.433C119.353 383.597 96.5502 378.681 59.5186 394.045C59.5186 394.045 110.663 383.025 134.467 389.433Z" fill="#D2F0EB"/>
<path d="M111.188 387.327C111.188 387.327 87.9098 392.824 81.063 402.703C89.6437 389.181 101.658 386.296 101.658 386.296L111.188 387.327Z" fill="#D2F0EB"/>
<path d="M322.862 56.5813C337.163 53.7706 356.875 46.5786 377.69 17.1239C377.69 17.1239 344.051 50.0426 322.862 56.5813Z" fill="#D2F0EB"/>
<path d="M341.587 47.0173C341.587 47.0173 356.667 31.6693 357.142 20.8707C357.097 35.2747 349.337 43.232 349.337 43.232L341.587 47.0173Z" fill="#D2F0EB"/>
<path d="M171.169 129.2C165.638 114.304 161.097 91.8773 176.627 55.7493C176.627 55.7493 165.181 105.773 171.169 129.2Z" fill="#D2F0EB"/>
<path d="M169.395 106.343C169.395 106.343 175.078 83.5812 184.849 76.9865C171.479 85.2359 168.502 96.9825 168.502 96.9825L169.395 106.343Z" fill="#D2F0EB"/>
<path d="M250.246 66.512C259.839 50.4253 277.081 29.6866 321.735 17.256C321.735 17.256 267.337 43.704 250.246 66.512Z" fill="#D2F0EB"/>
<path d="M269.926 47.9946C269.926 47.9946 295.03 36.396 308.306 40.4973C290.851 34.3133 277.863 40.2586 277.863 40.2586L269.926 47.9946Z" fill="#D2F0EB"/>
<path d="M64.3347 219.819C57.8363 211.577 46.7503 201.304 21.0342 197.639C21.0342 197.639 53.1831 208.385 64.3347 219.819Z" fill="#D2F0EB"/>
<path d="M355.302 92.9064C369.206 88.3358 390.008 84.9398 422.724 100.5C422.724 100.5 377.075 88.2131 355.302 92.9064Z" fill="#D2F0EB"/>
<path d="M376.403 92.0732C376.403 92.0732 397.158 98.0985 402.886 107.325C395.761 94.7292 385.051 91.5785 385.051 91.5785L376.403 92.0732Z" fill="#D2F0EB"/>
<path d="M139.162 334.203C136.978 319.728 137.105 298.649 157.911 268.993C157.911 268.993 138.171 311.949 139.162 334.203Z" fill="#D2F0EB"/>
<path d="M141.865 313.257C141.865 313.257 151.273 293.801 161.327 289.694C147.718 294.613 142.822 304.648 142.822 304.648L141.865 313.257Z" fill="#D2F0EB"/>
<path d="M75.224 599L84.536 531.8H94.616L111.032 562.424L127.352 531.8H137.432L146.744 599H133.976L127.544 548.504L130.904 549.176L111.032 584.888L91.064 549.272L94.424 548.6L87.992 599H75.224ZM178.454 599.96C172.662 599.96 167.83 598.808 163.958 596.504C160.118 594.168 157.238 591.096 155.318 587.288C153.398 583.448 152.438 579.256 152.438 574.712C152.438 570.328 153.334 566.28 155.126 562.568C156.95 558.856 159.606 555.88 163.094 553.64C166.582 551.368 170.838 550.232 175.862 550.232C180.47 550.232 184.31 551.176 187.382 553.064C190.454 554.952 192.758 557.48 194.294 560.648C195.83 563.784 196.598 567.256 196.598 571.064C196.598 572.12 196.534 573.192 196.406 574.28C196.278 575.336 196.086 576.44 195.83 577.592H164.822C165.27 580.568 166.198 582.984 167.606 584.84C169.046 586.664 170.79 588.008 172.838 588.872C174.918 589.736 177.142 590.168 179.51 590.168C182.294 590.168 184.886 589.816 187.286 589.112C189.686 588.376 191.894 587.416 193.91 586.232L194.486 596.312C192.662 597.272 190.39 598.12 187.67 598.856C184.95 599.592 181.878 599.96 178.454 599.96ZM165.11 569.528H184.502C184.502 568.088 184.23 566.648 183.686 565.208C183.142 563.736 182.23 562.504 180.95 561.512C179.702 560.52 178.006 560.024 175.862 560.024C172.79 560.024 170.374 560.92 168.614 562.712C166.854 564.504 165.686 566.776 165.11 569.528ZM204.724 599V551H214.9L215.668 558.008L213.94 555.896C215.764 554.456 217.94 553.16 220.468 552.008C223.028 550.824 226.004 550.232 229.396 550.232C231.956 550.232 234.212 550.616 236.164 551.384C238.148 552.12 239.844 553.192 241.252 554.6C242.66 555.976 243.796 557.624 244.66 559.544L241.78 558.872C243.316 556.12 245.556 553.992 248.5 552.488C251.476 550.984 254.836 550.232 258.58 550.232C262.996 550.232 266.596 551.144 269.38 552.968C272.164 554.792 274.212 557.368 275.524 560.696C276.836 563.992 277.492 567.864 277.492 572.312V599H265.588V573.176C265.588 568.696 264.884 565.384 263.476 563.24C262.1 561.096 259.796 560.024 256.564 560.024C254.964 560.024 253.556 560.312 252.34 560.888C251.156 561.432 250.164 562.248 249.364 563.336C248.596 564.392 248.02 565.688 247.636 567.224C247.252 568.728 247.06 570.424 247.06 572.312V599H235.156V573.176C235.156 570.2 234.836 567.736 234.196 565.784C233.588 563.832 232.596 562.392 231.22 561.464C229.876 560.504 228.116 560.024 225.94 560.024C223.156 560.024 220.868 560.68 219.076 561.992C217.316 563.272 215.764 565.016 214.42 567.224L216.628 560.792V599H204.724ZM309.954 599.96C304.738 599.96 300.29 598.824 296.61 596.552C292.93 594.28 290.114 591.256 288.162 587.48C286.242 583.704 285.282 579.576 285.282 575.096C285.282 570.584 286.242 566.424 288.162 562.616C290.114 558.808 292.93 555.768 296.61 553.496C300.29 551.192 304.738 550.04 309.954 550.04C315.17 550.04 319.618 551.192 323.298 553.496C326.978 555.768 329.778 558.808 331.698 562.616C333.65 566.424 334.626 570.584 334.626 575.096C334.626 579.576 333.65 583.704 331.698 587.48C329.778 591.256 326.978 594.28 323.298 596.552C319.618 598.824 315.17 599.96 309.954 599.96ZM309.954 590.168C313.954 590.168 317.026 588.776 319.17 585.992C321.346 583.176 322.434 579.544 322.434 575.096C322.434 570.584 321.346 566.92 319.17 564.104C317.026 561.256 313.954 559.832 309.954 559.832C305.986 559.832 302.914 561.256 300.738 564.104C298.562 566.92 297.474 570.584 297.474 575.096C297.474 579.544 298.562 583.176 300.738 585.992C302.914 588.776 305.986 590.168 309.954 590.168ZM342.912 599V551H354.048L354.336 556.088C355.552 554.744 357.264 553.4 359.472 552.056C361.68 550.712 364.096 550.04 366.72 550.04C367.488 550.04 368.192 550.104 368.832 550.232L367.968 561.944C367.264 561.752 366.56 561.624 365.856 561.56C365.184 561.496 364.512 561.464 363.84 561.464C361.824 561.464 359.984 561.928 358.32 562.856C356.656 563.784 355.488 564.92 354.816 566.264V599H342.912ZM374.599 599V551H386.503V599H374.599ZM374.599 543.704V531.8H386.503V543.704H374.599ZM420.798 599.96C415.006 599.96 410.174 598.808 406.302 596.504C402.462 594.168 399.582 591.096 397.662 587.288C395.742 583.448 394.782 579.256 394.782 574.712C394.782 570.328 395.678 566.28 397.47 562.568C399.294 558.856 401.95 555.88 405.438 553.64C408.926 551.368 413.182 550.232 418.206 550.232C422.814 550.232 426.654 551.176 429.726 553.064C432.798 554.952 435.102 557.48 436.638 560.648C438.174 563.784 438.942 567.256 438.942 571.064C438.942 572.12 438.878 573.192 438.75 574.28C438.622 575.336 438.43 576.44 438.174 577.592H407.166C407.614 580.568 408.542 582.984 409.95 584.84C411.39 586.664 413.134 588.008 415.182 588.872C417.262 589.736 419.486 590.168 421.854 590.168C424.638 590.168 427.23 589.816 429.63 589.112C432.03 588.376 434.238 587.416 436.254 586.232L436.83 596.312C435.006 597.272 432.734 598.12 430.014 598.856C427.294 599.592 424.222 599.96 420.798 599.96ZM407.454 569.528H426.846C426.846 568.088 426.574 566.648 426.03 565.208C425.486 563.736 424.574 562.504 423.294 561.512C422.046 560.52 420.35 560.024 418.206 560.024C415.134 560.024 412.718 560.92 410.958 562.712C409.198 564.504 408.03 566.776 407.454 569.528ZM460.7 599.96C457.532 599.96 454.668 599.656 452.108 599.048C449.58 598.44 447.036 597.56 444.476 596.408L445.532 586.232C447.996 587.672 450.412 588.84 452.78 589.736C455.18 590.6 457.692 591.032 460.316 591.032C462.684 591.032 464.492 590.648 465.74 589.88C466.988 589.112 467.612 587.896 467.612 586.232C467.612 584.984 467.276 583.96 466.604 583.16C465.964 582.36 464.988 581.64 463.676 581C462.364 580.36 460.732 579.672 458.78 578.936C455.836 577.848 453.324 576.664 451.244 575.384C449.196 574.104 447.628 572.568 446.54 570.776C445.484 568.952 444.956 566.712 444.956 564.056C444.956 561.304 445.676 558.872 447.116 556.76C448.556 554.648 450.604 553 453.26 551.816C455.916 550.632 459.068 550.04 462.716 550.04C465.756 550.04 468.476 550.376 470.876 551.048C473.308 551.72 475.548 552.632 477.596 553.784L476.54 563.96C474.396 562.456 472.236 561.224 470.06 560.264C467.884 559.272 465.5 558.776 462.908 558.776C460.86 558.776 459.276 559.192 458.156 560.024C457.036 560.856 456.476 562.04 456.476 563.576C456.476 565.432 457.26 566.824 458.828 567.752C460.396 568.68 462.908 569.816 466.364 571.16C468.604 572.024 470.54 572.92 472.172 573.848C473.836 574.776 475.212 575.8 476.3 576.92C477.388 578.04 478.188 579.32 478.7 580.76C479.244 582.168 479.516 583.8 479.516 585.656C479.516 588.696 478.78 591.288 477.308 593.432C475.868 595.544 473.74 597.16 470.924 598.28C468.14 599.4 464.732 599.96 460.7 599.96Z" fill="#3CBEA2"/>
</svg>
